HIERARCHY
ROOT Hips
{
	OFFSET 0.00000 0.00000 0.00000
	CHANNELS 6 Xposition Yposition Zposition Zrotation Yrotation Xrotation 
	JOINT LHipJoint
	{
		OFFSET 0 0 0
		CHANNELS 3 Zrotation Yrotation Xrotation
		JOINT LeftHip
		{
			OFFSET 1.64577 -1.42384 0.94276
			CHANNELS 3 Zrotation Yrotation Xrotation
			JOINT LeftKnee
			{
				OFFSET 2.11538 -5.81197 0.00000
				CHANNELS 3 Zrotation Yrotation Xrotation
				JOINT LeftAnkle
				{
					OFFSET 2.36541 -6.49893 0.00000
					CHANNELS 3 Zrotation Yrotation Xrotation
					JOINT LeftToe
					{
						OFFSET 0.17759 -0.48793 1.73865
						CHANNELS 3 Zrotation Yrotation Xrotation
						End Site
						{
							OFFSET 0.00000 -0.00000 0.91205
						}
					}
				}
			}
		}
	}
	JOINT RHipJoint
	{
		OFFSET 0 0 0
		CHANNELS 3 Zrotation Yrotation Xrotation
		JOINT RightHip
		{
			OFFSET -1.43750 -1.42384 0.94276
			CHANNELS 3 Zrotation Yrotation Xrotation
			JOINT RightKnee
			{
				OFFSET -2.10480 -5.78291 0.00000
				CHANNELS 3 Zrotation Yrotation Xrotation
				JOINT RightAnkle
				{
					OFFSET -2.34880 -6.45329 0.00000
					CHANNELS 3 Zrotation Yrotation Xrotation
					JOINT RightToe
					{
						OFFSET -0.22842 -0.62757 1.80469
						CHANNELS 3 Zrotation Yrotation Xrotation
						End Site
						{
							OFFSET -0.00000 -0.00000 0.95886
						}
					}
				}
			}
		}
	}
	JOINT lowerback
	{
		OFFSET 0 0 0
		CHANNELS 3 Zrotation Yrotation Xrotation
		JOINT Chest
		{
			OFFSET 0.06217 1.93758 -0.49272
			CHANNELS 3 Zrotation Yrotation Xrotation
			JOINT Chest2
			{
				OFFSET -0.03114 2.03621 -0.05830
				CHANNELS 3 Zrotation Yrotation Xrotation
				JOINT lowerneck
				{
					OFFSET 0 0 0
					CHANNELS 3 Zrotation Yrotation Xrotation
					JOINT Neck
					{
						OFFSET 0.04421 1.41010 0.26562
						CHANNELS 3 Zrotation Yrotation Xrotation
						JOINT Head
						{
							OFFSET -0.13407 1.43847 0.06181
							CHANNELS 3 Zrotation Yrotation Xrotation
							End Site
							{
								OFFSET -0.04980 1.45844 -0.00689
							}
						}
					}
				}
				JOINT LeftCollar
				{
					OFFSET 0 0 0
					CHANNELS 3 Zrotation Yrotation Xrotation
					JOINT LeftShoulder
					{
						OFFSET 2.18382 1.47753 -0.35694
CHANNELS 3 Zrotation Xrotation Yrotation
						JOINT LeftElbow
						{
OFFSET 0 -5.054600 0.000000
CHANNELS 3 Zrotation Xrotation Yrotation
							JOINT LeftWrist
							{
OFFSET 0 -3.390130 0.000000
CHANNELS 3 Zrotation Xrotation Yrotation
								JOINT lhand
								{
									OFFSET 0 0 0
CHANNELS 3 Zrotation Xrotation Yrotation
									JOINT LFingers
									{
OFFSET 0 -0.572420 -0.000000
CHANNELS 3 Zrotation Xrotation Yrotation
										End Site
										{
OFFSET 0 -0.461500 -0.000000
										}
									}
								}
								JOINT LThumb
								{
OFFSET 0 0.000000 0.000000
CHANNELS 3 Zrotation Xrotation Yrotation
									End Site
									{
OFFSET 0 -0.468550 0.468550
									}
								}
							}
						}
					}
				}
				JOINT RightCollar
				{
					OFFSET 0 0 0
					CHANNELS 3 Zrotation Yrotation Xrotation
					JOINT RightShoulder
					{
						OFFSET -2.06033 1.72839 -0.47437
CHANNELS 3 Zrotation Xrotation Yrotation
						JOINT RightElbow
						{
OFFSET 0 -5.070100 0.000000
CHANNELS 3 Zrotation Xrotation Yrotation
							JOINT RightWrist
							{
OFFSET 0 -3.149570 -0.000000
CHANNELS 3 Zrotation Xrotation Yrotation
								JOINT rhand
								{
									OFFSET 0 0 0
CHANNELS 3 Zrotation Xrotation Yrotation
									JOINT RFingers
									{
OFFSET 0 -0.718190 -0.000000
CHANNELS 3 Zrotation Xrotation Yrotation
										End Site
										{
OFFSET 0 -0.579020 -0.000000
										}
									}
								}
								JOINT RThumb
								{
OFFSET 0 0.000000 0.000000
CHANNELS 3 Zrotation Xrotation Yrotation
									End Site
									{
OFFSET 0 -0.587860 0.587860
									}
								}
							}
						}
					}
				}
			}
		}
	}
}
MOTION
Frames: 9
Frame Time: 0.008333333333333333
17.009920 15.179650 -1.241188 -576.112229 -87.123698 571.871311 0.000000 0.000000 0.000000 -15.817718 -18.513822 -9.832737 4.889277 13.257417 40.340934 0.811224 1.335077 -17.758298 0.071023 -0.837604 -2.313696 0.000000 0.000000 0.000000 24.572098 13.625870 3.204375 -2.835555 -10.423964 30.360882 -4.000348 -12.810044 -43.582174 -1.313064 7.254198 -20.472422 2.041545 -0.486635 6.201041 0.508953 -0.706128 4.860869 -0.589145 -0.371273 1.517029 -9.213334 9.626780 -22.126191 -13.583047 -68.677011 17.711043 178.960706 -45.518694 41.259840 0.000000 0.000000 0.000000 4.077450 6.573968 -17.809672 17.346975 -27.312403 4.245585 13.298643 6.132623 -10.863703 0.000000 0.000000 0.000000 -7.125000 0.000000 0.000000 -12.171855 40.830999 -1.273164 0.000000 0.000000 0.000000 -13.263098 18.991507 33.256808 -29.091706 -40.101967 -10.819764 -5.918863 -17.933731 8.831109 0.000000 0.000000 0.000000 7.125000 0.000000 0.000000 17.917929 38.255061 3.095440
17.127998 15.170934 -1.402924 -578.287519 -85.621008 573.638336 0.000000 0.000000 0.000000 -15.493451 -18.360773 -11.329486 5.588306 14.016793 43.305515 0.401593 -15.829709 -14.972200 2.066696 -8.939434 -25.647177 0.000000 0.000000 0.000000 24.517420 14.996126 4.013210 -2.843121 -10.436760 30.402903 -4.592256 -11.965758 -45.579691 -1.858392 8.563436 -24.439692 2.106263 -0.042454 6.628007 0.288065 -0.117407 5.089372 -0.880227 -0.075826 1.532355 -9.555439 9.820638 -21.822344 -12.460891 -67.288408 16.423696 178.760083 -44.379998 40.834850 0.000000 0.000000 0.000000 3.459053 6.619263 -15.506297 16.596093 -26.322212 3.906619 10.307731 2.734197 -13.591913 0.000000 0.000000 0.000000 -7.125000 0.000000 0.000000 -15.491444 43.235132 -0.685687 0.000000 0.000000 0.000000 -13.571514 17.620719 32.023013 -28.999741 -40.020402 -10.760547 -6.504374 -18.543975 7.906905 0.000000 0.000000 0.000000 7.125000 0.000000 0.000000 17.205838 37.410732 3.333876
17.210467 15.201232 -1.500784 -565.030876 -84.268382 560.551579 0.000000 0.000000 0.000000 -12.507362 -17.784758 -13.259119 6.386453 14.792178 46.512790 -0.217335 -20.234475 -12.399260 3.073855 -10.813327 -31.653228 0.000000 0.000000 0.000000 25.263778 16.037987 4.833609 -2.610986 -10.036684 29.095925 -4.975272 -10.943821 -46.604789 -2.479962 9.800962 -28.334928 3.550041 0.221826 6.810809 0.589577 0.312654 4.921449 -1.402059 0.166509 1.284912 -10.149224 10.442935 -21.654814 -11.877761 -66.482088 15.757254 177.785121 -43.876830 41.188591 0.000000 0.000000 0.000000 2.835846 7.362295 -12.777029 15.836138 -25.297909 3.575665 8.632674 -0.726688 -13.449951 0.000000 0.000000 0.000000 -7.125000 0.000000 0.000000 -16.909297 42.925457 -0.893567 0.000000 0.000000 0.000000 -14.071950 16.454483 29.800212 -29.693981 -40.629580 -11.209844 -6.073188 -18.164980 8.753907 0.000000 0.000000 0.000000 7.125000 0.000000 0.000000 17.771309 38.192375 3.095955
17.267850 15.253073 -1.560637 -562.805205 -82.228160 558.209060 0.000000 0.000000 0.000000 -10.025652 -19.025450 -13.243543 6.944739 15.285035 48.664803 0.189934 -17.842194 -14.266011 2.181848 -9.223151 -26.504302 0.000000 0.000000 0.000000 25.490884 17.922155 6.298287 -2.395605 -9.645483 27.836239 -5.006585 -11.484817 -46.990528 -2.601062 10.019426 -29.039562 3.995838 0.365869 7.091704 0.636827 0.527915 4.982626 -1.616585 0.279269 1.211296 -10.448576 11.156471 -21.984404 -11.101856 -65.771799 14.918187 176.776798 -43.736866 41.616023 0.000000 0.000000 0.000000 2.815142 8.327122 -11.008146 15.420189 -24.727742 3.400078 6.536487 0.778072 -14.191227 0.000000 0.000000 0.000000 -7.125000 0.000000 0.000000 -18.971070 43.415194 -0.771703 0.000000 0.000000 0.000000 -14.020121 14.799580 27.799963 -30.197950 -41.062380 -11.539447 -8.027099 -18.951756 9.473409 0.000000 0.000000 0.000000 7.125000 0.000000 0.000000 16.326704 39.030609 2.479869
17.289636 15.367950 -1.600755 -568.709134 -80.460304 563.616125 0.000000 0.000000 0.000000 -9.218121 -20.544469 -12.264098 7.476321 15.720071 50.653287 0.477234 -1.070199 -12.947510 0.083859 0.864695 2.381955 0.000000 0.000000 0.000000 24.651738 19.010680 7.933608 -2.102610 -9.075794 26.033309 -4.025448 -13.708989 -44.207260 -1.882418 8.595955 -24.552670 3.303106 0.211847 7.531097 0.297917 0.298586 5.014145 -1.566458 0.147552 0.981968 -10.391714 11.910053 -21.950037 -11.117382 -65.703446 15.016473 176.132813 -44.056309 42.115406 0.000000 0.000000 0.000000 3.561527 8.401743 -9.950874 14.026359 -22.772254 2.838349 5.691754 8.583661 -13.146143 0.000000 0.000000 0.000000 -7.125000 0.000000 0.000000 -19.357123 42.338311 -1.325351 0.000000 0.000000 0.000000 -13.946635 14.035161 27.939490 -30.889361 -41.643581 -11.996265 -10.208252 -19.441446 9.959046 0.000000 0.000000 0.000000 7.125000 0.000000 0.000000 14.607358 39.674749 1.965738
17.268421 15.468828 -1.667133 -572.998180 -80.662911 567.615441 0.000000 0.000000 0.000000 -8.009282 -22.606458 -11.880285 7.423419 15.677985 50.457548 -0.333656 13.281448 -14.041699 3.069279 10.802091 31.619913 0.000000 0.000000 0.000000 24.772322 18.892351 9.380489 -1.745280 -8.313930 23.671711 -2.676249 -16.208261 -39.909086 -0.477150 4.412734 -12.243469 3.024953 -0.459978 7.397155 0.252348 -0.623445 5.130812 -1.399215 -0.319033 1.130521 -10.508619 12.679025 -22.017000 -9.715964 -64.171825 13.614337 176.080892 -42.209661 41.492224 0.000000 0.000000 0.000000 4.422297 8.017366 -9.223278 13.267563 -21.678047 2.551312 6.988329 12.293318 -11.699343 0.000000 0.000000 0.000000 -7.125000 0.000000 0.000000 -17.804841 41.085008 -1.782616 0.000000 0.000000 0.000000 -14.011189 14.046032 29.661445 -31.478043 -42.126951 -12.389363 -11.016434 -19.218750 8.850143 0.000000 0.000000 0.000000 7.125000 0.000000 0.000000 13.671620 38.645425 2.187643
17.232738 15.468488 -1.734529 -581.002152 -81.607655 575.625932 0.000000 0.000000 0.000000 -8.116913 -25.295030 -11.746391 6.364745 14.771610 46.426428 -0.510636 14.782226 -13.838682 2.972540 10.647868 31.103912 0.000000 0.000000 0.000000 25.349591 19.710922 9.504511 -1.815471 -8.470421 24.152539 -2.341325 -18.770598 -40.380031 -0.029565 1.041472 -2.863580 2.828838 -0.869012 7.213477 -0.113455 -1.174708 5.090452 -1.633158 -0.590948 1.160008 -10.447250 12.653557 -21.994643 -8.782574 -63.461460 12.735377 176.460335 -40.592446 40.739509 0.000000 0.000000 0.000000 5.738685 6.899029 -7.497519 13.303337 -21.729999 2.564518 9.239194 10.725837 -10.991299 0.000000 0.000000 0.000000 -7.125000 0.000000 0.000000 -15.690122 40.601828 -1.750847 0.000000 0.000000 0.000000 -12.973430 15.551380 30.564432 -31.654423 -42.269944 -12.507795 -11.398761 -18.630572 5.620781 0.000000 0.000000 0.000000 7.125000 0.000000 0.000000 12.719368 35.469190 3.039885
17.218862 15.429255 -1.793745 -590.550581 -82.498854 585.235070 0.000000 0.000000 0.000000 -9.597563 -28.101875 -11.941461 5.121355 13.517067 41.340091 -0.004380 10.018941 -14.237889 1.629756 8.031670 22.819297 0.000000 0.000000 0.000000 25.290117 19.273433 7.905273 -2.134612 -9.140481 26.236144 -2.242675 -19.422619 -40.477337 -0.008794 -0.559235 1.536895 2.675880 -1.081551 7.307816 -0.508396 -1.469505 5.255749 -1.936369 -0.735627 1.258372 -10.460241 12.053826 -22.391594 -8.316529 -62.932232 12.102119 177.331630 -39.770603 39.963279 0.000000 0.000000 0.000000 6.545302 5.884707 -6.729772 14.492838 -23.433875 3.021973 14.954044 8.059951 -10.776445 0.000000 0.000000 0.000000 -7.125000 0.000000 0.000000 -10.718546 40.889021 -1.100754 0.000000 0.000000 0.000000 -11.989278 16.402946 31.525654 -31.117878 -41.832430 -12.148399 -12.076255 -18.097733 5.625008 0.000000 0.000000 0.000000 7.125000 0.000000 0.000000 12.165704 35.508540 2.891030
17.196405 15.380048 -1.845548 -598.977880 -82.836806 593.918097 0.000000 0.000000 0.000000 -11.822631 -28.339582 -13.273211 4.165577 12.377458 37.080573 0.573115 -1.670254 -13.840234 0.028112 1.030514 2.832890 0.000000 0.000000 0.000000 25.018316 19.185897 6.558000 -2.444860 -9.736818 28.128745 -2.382108 -19.441415 -41.129646 -0.020764 -0.929622 2.555217 2.174651 -1.036894 7.127160 -0.799680 -1.445422 5.415897 -1.963024 -0.728650 1.528052 -10.427566 11.338194 -22.550354 -8.988274 -63.645123 12.680026 177.961545 -40.598930 39.943962 0.000000 0.000000 0.000000 6.562172 5.566991 -7.160351 16.347321 -25.989284 3.796965 17.832554 5.291425 -10.095674 0.000000 0.000000 0.000000 -7.125000 0.000000 0.000000 -8.085747 40.443592 -0.915167 0.000000 0.000000 0.000000 -11.724393 16.913563 32.999914 -30.292369 -41.142634 -11.601553 -11.761152 -17.462559 7.368872 0.000000 0.000000 0.000000 7.125000 0.000000 0.000000 12.743254 37.228243 2.486211
